# AST/ASF file generated using VICON BodyLanguage
# -----------------------------------------------
:version 1.10
:name VICON
:units
  mass 1.0
  length 0.45
  angle deg
:documentation
   .ast/.asf automatically generated from VICON data using
   VICON BodyBuilder and BodyLanguage model FoxedUp or BRILLIANT.MOD
:root
   order TX TY TZ RX RY RZ
   axis XYZ
   position 0 0 0  
   orientation 0 0 0 
:bonedata
  begin
     id 1 
     name lhipjoint
     direction 0.567725 -0.736092 0.368589 
     length 2.42353 
     axis 0 0 0  XYZ
  end
  begin
     id 2 
     name lfemur
     direction 0.34202 -0.939693 0  
     length 7.24894  
     axis 0 0 20  XYZ
    dof rx ry rz
    limits (-160.0 20.0)
           (-70.0 70.0)
           (-60.0 70.0)
  end
  begin
     id 3 
     name ltibia
     direction 0.34202 -0.939693 0   
     length 7.6997   
     axis 0 0 20   XYZ
    dof rx
    limits (-10.0 170.0)
  end
  begin
     id 4 
     name lfoot
     direction 0.100767 -0.276854 0.955614   
     length 2.37556   
     axis -90 7.62852e-016 20   XYZ
    dof rx rz
    limits (-45.0 90.0)
           (-70.0 20.0)
  end
  begin
     id 5 
     name ltoes
     direction 1.53592e-011 -4.21894e-011 1   
     length 1.18363   
     axis -90 7.62852e-016 20   XYZ
    dof rx
    limits (-90.0 20.0)
  end
  begin
     id 6 
     name rhipjoint
     direction -0.556459 -0.742938 0.372017   
     length 2.4012  
     axis 0 0 0  XYZ 
  end
  begin
     id 7 
     name rfemur
     direction -0.34202 -0.939693 0   
     length 7.5119   
     axis 0 0 -20   XYZ
    dof rx ry rz
    limits (-160.0 20.0)
           (-70.0 70.0)
           (-70.0 60.0)
  end
  begin
     id 8 
     name rtibia
     direction -0.34202 -0.939693 0   
     length 7.50155   
     axis 0 0 -20   XYZ
    dof rx
    limits (-10.0 170.0)
 end
 begin
     id 9 
     name rfoot
     direction -0.118427 -0.325376 0.938139   
     length 2.32487  
     axis -90 -7.62852e-016 -20   XYZ
    dof rx rz
    limits (-45.0 90.0)
           (-20.0 70.0)
  end
  begin
     id 10 
     name rtoes
     direction -1.53525e-011 -4.21868e-011 1   
     length 1.15233   
     axis -90 -7.62852e-016 -20   XYZ
    dof rx
    limits (-90.0 20.0)
  end
  begin
     id 11 
     name lowerback
     direction 0.0287568 0.999577 -0.00434502   
     length 2.15243   
     axis 0 0 0   XYZ
    dof rx ry rz
    limits (-20.0 45.0)
           (-30.0 30.0)
           (-30.0 30.0)
  end
  begin
     id 12 
     name upperback
     direction 0.0294009 0.99956 0.00404628   
     length 2.15427   
     axis 0 0 0   XYZ
    dof rx ry rz
    limits (-20.0 45.0)
           (-30.0 30.0)
           (-30.0 30.0)
  end
  begin
     id 13 
     name thorax
     direction 0.0151014 0.999868 0.0059419   
     length 2.14898   
     axis 0 0 0   XYZ
    dof rx ry rz
    limits (-20.0 45.0)
           (-30.0 30.0)
           (-30.0 30.0)
  end
  begin
     id 14 
     name lowerneck
     direction -0.0249197 0.989906 0.139515   
     length 1.6861   
     axis 0 0 0   XYZ
    dof rx ry rz
    limits (-20.0 45.0)
           (-30.0 30.0)
           (-30.0 30.0)
  end
  begin
     id 15 
     name upperneck
     direction 0.0438463 0.988795 -0.142693   
     length 1.71276   
     axis 0 0 0   XYZ
    dof rx ry rz
    limits (-20.0 45.0)
           (-30.0 30.0)
           (-30.0 30.0)
  end
  begin
     id 16
     name head
     direction 0.0148499 0.997845 -0.0639186  
     length 1.7209  
     axis 0 0 0   XYZ
    dof rx ry rz
    limits (-20.0 45.0)
           (-30.0 30.0)
           (-30.0 30.0)
  end
  begin
     id 17 
     name lclavicle
     direction 0.940298 0.323464 -0.105876  
     length 3.9048  
     axis 0 0 0   XYZ
    dof ry rz
    limits (-20.0 10.0)
           (0.0 20.0)
  end
  begin
     id 18 
     name lhumerus
     direction 1 -4.48954e-011 -4.9675e-028   
     length 4.6851   
     axis 180 -30 -90   XYZ
    dof rx ry rz
    limits (-60.0 90.0)
           (-90.0 90.0)
           (-90.0 90.0)
  end
  begin
     id 19
     name lradius
     direction 1 -4.48992e-011 -1.03359e-026   
     length 3.39626   
     axis 180 -30 -90   XYZ
    dof rx
    limits (-10.0 170.0)
  end
  begin
     id 20
     name lwrist
     direction 1 -4.48906e-011 -1.67336e-026   
     length 1.69813   
     axis 9.90442e-015 90 90   XYZ
    dof ry
    limits (-180.0 0.0)
 end
  begin
     id 21 
     name lhand
     direction 1 -4.49006e-011 -3.34673e-026   
     length 0.486078   
     axis 2.1355e-014 90 90   XYZ
    dof rx rz
    limits (-90.0 90.0)
           (-45.0 45.0)
  end
  begin
     id 22 
     name lfingers
     direction 1 -4.48992e-011 -6.69345e-026   
     length 0.391889   
     axis 4.27099e-014 90 90   XYZ
    dof rx
    limits (0.0 90.0)
  end
  begin
     id 23
     name lthumb
     direction 0.707107 -6.34926e-011 0.707107   
     length 0.562676   
     axis -90 45 2.85299e-015   XYZ
    dof rx rz
    limits (-45.0 45.0)
           (-45.0 45.0)
  end
  begin
     id 24 
     name rclavicle
     direction -0.882459 0.414895 -0.221648   
     length 3.44646  
     axis 0 0 0   XYZ 
    dof ry rz
    limits (-10.0 20.0)
           (-20.0 0.0)
  end
  begin
     id 25 
     name rhumerus
     direction -1 -4.48962e-011 -2.37984e-027  
     length 5.55576   
     axis 180 30 90   XYZ
    dof rx ry rz
    limits (-90.0 60.0)
           (-90.0 90.0)
           (-90.0 90.0)
  end
  begin
     id 26 
     name rradius
     direction -1 -4.48982e-011 -6.86791e-027   
     length 3.32774   
     axis 180 30 90   XYZ
    dof rx
    limits (-10.0 170.0)
  end
  begin
     id 27 
     name rwrist
     direction -1 -4.48961e-011 -1.67336e-026   
     length 1.66387   
     axis 9.90442e-015 -90 -90   XYZ
    dof ry
    limits (-180.0 0.0)
  end
  begin
     id 28
     name rhand
     direction -1 -4.4897e-011 -3.34673e-026   
     length 0.507628   
     axis 2.1355e-014 -90 -90   XYZ
    dof rx rz
    limits (-90.0 90.0)
           (-45.0 45.0)
  end
  begin
     id 29
     name rfingers
     direction -1 -4.48854e-011 -6.69345e-026   
     length 0.409263   
     axis 4.27099e-014 -90 -90   XYZ
    dof rx
    limits (0.0 90.0)
  end
  begin
     id 30
     name rthumb
     direction -0.707107 -6.34913e-011 0.707107   
     length 0.587622   
     axis -90 -45 -2.85299e-015   XYZ
    dof rx rz
    limits (-45.0 45.0)
           (-45.0 45.0)
  end
:hierarchy
  begin
    root lhipjoint rhipjoint lowerback
    lhipjoint lfemur
    lfemur ltibia
    ltibia lfoot
    lfoot ltoes
    rhipjoint rfemur
    rfemur rtibia
    rtibia rfoot
    rfoot rtoes
    lowerback upperback
    upperback thorax
    thorax lowerneck lclavicle rclavicle
    lowerneck upperneck
    upperneck head
    lclavicle lhumerus
    lhumerus lradius
    lradius lwrist
    lwrist lhand lthumb
    lhand lfingers
    rclavicle rhumerus
    rhumerus rradius
    rradius rwrist
    rwrist rhand rthumb
    rhand rfingers
  end

#!OML:ASF E:\motion texture\Top Level 1\Subject 1\Session 1\male.ASF
:FULLY-SPECIFIED
:DEGREES
60
root 42.5671 17.9012 5.91579 152.936 -83.4923 -142.465
lowerback -3.19211 -0.670446 2.90286
upperback -2.61821 -1.07968 4.51489
thorax -0.865728 -0.603861 2.99207
lowerneck -11.583 -6.47579 -8.60573
upperneck 14.1238 -7.8979 3.4522
head 6.69496 -4.02566 1.74774
rclavicle -2.6339e-015 7.15625e-015
rhumerus -28.9819 -7.90315 -75.9247
rradius 23.6477
rwrist 13.4852
rhand -12.2895 -24.3973
rfingers 7.12502
rthumb 13.778 -53.9211
lclavicle -2.6339e-015 7.15625e-015
lhumerus -34.8097 17.9876 78.6739
lradius 25.7856
lwrist -29.7892
lhand -13.0425 17.9043
lfingers 7.12502
lthumb 13.0522 47.4759
rfemur -10.0636 3.49185 26.875
rtibia 15.4472
rfoot -10.6483 -13.9361
rtoes 12.582
lfemur -8.42705 -3.72867 -14.1169
ltibia 13.0505
lfoot -11.8085 3.2256
ltoes 2.55948
61
root 42.5582 17.8985 5.90639 152.914 -83.4474 -142.418
lowerback -3.16935 -0.645819 2.95138
upperback -2.57223 -1.04961 4.55042
thorax -0.83232 -0.589323 3.00215
lowerneck -11.5932 -6.43203 -8.52084
upperneck 14.0278 -7.84355 3.42727
head 6.65778 -3.99534 1.73315
rclavicle 2.94698e-014 -6.20208e-014
rhumerus -28.9771 -7.73081 -75.9898
rradius 23.866
rwrist 13.3536
rhand -12.3739 -24.4353
rfingers 7.12502
rthumb 13.6966 -53.9646
lclavicle 2.94698e-014 -6.20208e-014
lhumerus -34.8169 17.9742 78.676
lradius 25.823
lwrist -29.8332
lhand -13.0229 17.8748
lfingers 7.12502
lthumb 13.0712 47.4452
rfemur -10.0628 3.50267 26.9427
rtibia 15.4634
rfoot -10.6748 -13.8947
rtoes 12.5911
lfemur -8.6127 -3.66882 -14.0515
ltibia 13.4189
lfoot -11.9413 3.24112
ltoes 2.37549
62
root 42.5492 17.8956 5.89687 152.869 -83.4028 -142.351
lowerback -3.14143 -0.622456 2.99849
upperback -2.53091 -1.02086 4.58925
thorax -0.80646 -0.575522 3.01657
lowerneck -11.5836 -6.38587 -8.44458
upperneck 13.9258 -7.7871 3.40773
head 6.61585 -3.96434 1.72245
rclavicle 1.4561e-014 -2.38542e-014
rhumerus -28.9897 -7.5108 -76.0666
rradius 24.1209
rwrist 13.1948
rhand -12.4577 -24.4789
rfingers 7.12502
rthumb 13.6159 -54.0136
lclavicle 1.4561e-014 -2.38542e-014
lhumerus -34.8379 17.9613 78.6809
lradius 25.868
lwrist -29.8701
lhand -13.0052 17.8435
lfingers 7.12502
lthumb 13.0882 47.4128
rfemur -10.0591 3.51173 27.0133
rtibia 15.4808
rfoot -10.7031 -13.8537
rtoes 12.6014
lfemur -8.81117 -3.60585 -13.9846
ltibia 13.8164
lfoot -12.0766 3.25592
ltoes 2.17994
63
root 42.54 17.8927 5.88725 152.802 -83.3588 -142.264
lowerback -3.11161 -0.597919 3.04696
upperback -2.48724 -0.990578 4.62805
thorax -0.779302 -0.560945 3.03024
lowerneck -11.5733 -6.34143 -8.37005
upperneck 13.8192 -7.73313 3.39141
head 6.57276 -3.93432 1.71284
rclavicle 1.30701e-014 -5.08889e-014
rhumerus -29.0086 -7.25446 -76.158
rradius 24.4148
rwrist 13.0089
rhand -12.5499 -24.5216
rfingers 7.12502
rthumb 13.5271 -54.0622
lclavicle 1.30701e-014 -5.08889e-014
lhumerus -34.8547 17.9435 78.6923
lradius 25.9179
lwrist -29.9005
lhand -12.9893 17.8081
lfingers 7.12502
lthumb 13.1035 47.3764
rfemur -10.0524 3.52051 27.0866
rtibia 15.4989
rfoot -10.7326 -13.815
rtoes 12.6111
lfemur -9.02232 -3.54016 -13.9161
ltibia 14.2419
lfoot -12.2132 3.26919
ltoes 1.97196
64
root 42.5308 17.8897 5.87753 152.719 -83.3164 -142.162
lowerback -3.07842 -0.573963 3.09399
upperback -2.44516 -0.960852 4.66852
thorax -0.755606 -0.546662 3.04651
lowerneck -11.5504 -6.29593 -8.30329
upperneck 13.7079 -7.67845 3.38147
head 6.52663 -3.90404 1.70693
rclavicle -8.94531e-016 -3.4191e-014
rhumerus -29.0412 -6.94956 -76.264
rradius 24.754
rwrist 12.7927
rhand -12.645 -24.5619
rfingers 7.12502
rthumb 13.4354 -54.1086
lclavicle -8.94531e-016 -3.4191e-014
lhumerus -34.8779 17.9235 78.7084
lradius 25.9741
lwrist -29.9217
lhand -12.9755 17.7695
lfingers 7.12502
lthumb 13.1168 47.337
rfemur -10.043 3.52848 27.1613
rtibia 15.5176
rfoot -10.7633 -13.7787
rtoes 12.6216
lfemur -9.24801 -3.47144 -13.8472
ltibia 14.6981
lfoot -12.3506 3.27985
ltoes 1.75216
65
root 42.5214 17.8867 5.86774 152.616 -83.2749 -142.044
lowerback -3.05386 -0.548895 3.14486
upperback -2.39338 -0.930643 4.70668
thorax -0.717182 -0.532032 3.058
lowerneck -11.5311 -6.25225 -8.23898
upperneck 13.5883 -7.62657 3.381
head 6.47921 -3.87431 1.70408
rclavicle -3.57812e-015 1.74931e-014
rhumerus -29.07 -6.60712 -76.3909
rradius 25.1392
rwrist 12.548
rhand -12.7445 -24.6051
rfingers 7.12502
rthumb 13.3395 -54.1581
lclavicle -3.57812e-015 1.74931e-014
lhumerus -34.8846 17.8986 78.732
lradius 26.0342
lwrist -29.9323
lhand -12.9671 17.7263
lfingers 7.12502
lthumb 13.1249 47.2932
rfemur -10.0306 3.53528 27.238
rtibia 15.5365
rfoot -10.7948 -13.7443
rtoes 12.6297
lfemur -9.4885 -3.39841 -13.7773
ltibia 15.1857
lfoot -12.488 3.28741
ltoes 1.52113
66
root 42.512 17.8836 5.85786 152.498 -83.234 -141.913
lowerback -3.02629 -0.522655 3.19649
upperback -2.34035 -0.898787 4.74445
thorax -0.679215 -0.516566 3.06874
lowerneck -11.5103 -6.20995 -8.17742
upperneck 13.467 -7.57677 3.38447
head 6.43146 -3.84545 1.70271
rclavicle -2.40529e-014 -2.22639e-014
rhumerus -29.1086 -6.22085 -76.5343
rradius 25.5763
rwrist 12.2754
rhand -12.8329 -24.6622
rfingers 7.12502
rthumb 13.2543 -54.2208
lclavicle -2.40529e-014 -2.22639e-014
lhumerus -34.8899 17.8659 78.7619
lradius 26.1007
lwrist -29.9331
lhand -12.9593 17.6843
lfingers 7.12502
lthumb 13.1324 47.2507
rfemur -10.0157 3.54199 27.3167
rtibia 15.5563
rfoot -10.8274 -13.7122
rtoes 12.6393
lfemur -9.74532 -3.31848 -13.7067
ltibia 15.7063
lfoot -12.6235 3.29157
ltoes 1.27956
67
root 42.5025 17.8804 5.84791 152.364 -83.1939 -141.767
lowerback -2.99914 -0.495103 3.25074
upperback -2.28351 -0.865429 4.78043
thorax -0.637181 -0.500308 3.07614
lowerneck -11.4905 -6.16964 -8.11789
upperneck 13.3434 -7.53003 3.39375
head 6.38367 -3.81768 1.70314
rclavicle -6.65929e-015 6.99722e-014
rhumerus -29.1531 -5.79311 -76.6965
rradius 26.0685
rwrist 11.9737
rhand -12.9271 -24.7147
rfingers 7.12502
rthumb 13.1635 -54.2791
lclavicle -6.65929e-015 6.99722e-014
lhumerus -34.8873 17.8262 78.7976
lradius 26.1712
lwrist -29.9248
lhand -12.9536 17.642
lfingers 7.12502
lthumb 13.1379 47.2081
rfemur -9.99827 3.54865 27.3974
rtibia 15.5767
rfoot -10.8615 -13.6825
rtoes 12.6493
lfemur -10.0189 -3.23224 -13.6351
ltibia 16.2596
lfoot -12.7551 3.29209
ltoes 1.0192
68
root 42.4929 17.8772 5.83797 152.226 -83.1555 -141.621
lowerback -2.96581 -0.46468 3.30502
upperback -2.22344 -0.827914 4.81409
thorax -0.595424 -0.481893 3.08128
lowerneck -11.4859 -6.13373 -8.05404
upperneck 13.2249 -7.48862 3.40214
head 6.3403 -3.7922 1.70154
rclavicle -1.2921e-014 4.92986e-014
rhumerus -29.2018 -5.32794 -76.8744
rradius 26.6176
rwrist 11.6473
rhand -12.8916 -25.015
rfingers 7.12502
rthumb 13.1977 -54.5773
lclavicle -1.2921e-014 4.92986e-014
lhumerus -34.8743 17.7735 78.8435
lradius 26.2469
lwrist -29.9059
lhand -12.9492 17.6037
lfingers 7.12502
lthumb 13.1421 47.1696
rfemur -9.97829 3.55307 27.4773
rtibia 15.598
rfoot -10.8974 -13.6539
rtoes 12.6542
lfemur -10.3096 -3.13989 -13.5652
ltibia 16.8475
lfoot -12.8831 3.28757
ltoes 0.746317
69
root 42.4832 17.874 5.82799 152.057 -83.118 -141.445
lowerback -2.92962 -0.436995 3.35185
upperback -2.1684 -0.793878 4.85734
thorax -0.560086 -0.465296 3.10059
lowerneck -11.4532 -6.0952 -8.01151
upperneck 13.0996 -7.44323 3.41597
head 6.29093 -3.76588 1.70623
rclavicle -7.85199e-015 -3.33958e-014
rhumerus -29.2716 -4.79524 -77.059
rradius 27.2337
rwrist 11.2932
rhand -12.9329 -25.1949
rfingers 7.12502
rthumb 13.1578 -54.7597
lclavicle -7.85199e-015 -3.33958e-014
lhumerus -34.88 17.727 78.8986
lradius 26.332
lwrist -29.8776
lhand -12.9461 17.5653
lfingers 7.12502
lthumb 13.1451 47.131
rfemur -9.95526 3.55545 27.5606
rtibia 15.6194
rfoot -10.9343 -13.627
rtoes 12.658
lfemur -10.6186 -3.04156 -13.4927
ltibia 17.4715
lfoot -13.0062 3.27737
ltoes 0.46137
70
root 42.4735 17.8707 5.81801 151.872 -83.0821 -141.256
lowerback -2.88471 -0.409366 3.40351
upperback -2.11643 -0.759227 4.89709
thorax -0.532929 -0.448476 3.11371
lowerneck -11.4168 -6.05767 -7.96995
upperneck 12.9782 -7.40019 3.4339
head 6.24253 -3.74059 1.71214
rclavicle 1.26228e-014 -3.89618e-014
rhumerus -29.3578 -4.2223 -77.2613
rradius 27.9162
rwrist 10.9226
rhand -13.0318 -25.2523
rfingers 7.12502
rthumb 13.0626 -54.8232
lclavicle 1.26228e-014 -3.89618e-014
lhumerus -34.8917 17.67 78.953
lradius 26.4237
lwrist -29.8377
lhand -12.9446 17.5268
lfingers 7.12502
lthumb 13.1466 47.0923
rfemur -9.92982 3.55663 27.6451
rtibia 15.6417
rfoot -10.9729 -13.6021
rtoes 12.664
lfemur -10.9467 -2.93674 -13.4195
ltibia 18.1317
lfoot -13.1242 3.26134
ltoes 0.137276
71
root 42.4637 17.8674 5.80804 151.67 -83.048 -141.051
lowerback -2.8375 -0.379551 3.45631
upperback -2.05978 -0.721698 4.93527
thorax -0.502344 -0.430147 3.12459
lowerneck -11.3905 -6.02537 -7.92864
upperneck 12.8605 -7.36354 3.45307
head 6.19753 -3.71821 1.71747
rclavicle 4.27387e-015 -5.24792e-014
rhumerus -29.4462 -3.61689 -77.4756
rradius 28.6675
rwrist 10.5371
rhand -13.123 -25.3199
rfingers 7.12502
rthumb 12.9746 -54.8964
lclavicle 4.27387e-015 -5.24792e-014
lhumerus -34.8914 17.6017 79.0169
lradius 26.5189
lwrist -29.7883
lhand -12.9446 17.4889
lfingers 7.12502
lthumb 13.1466 47.0544
rfemur -9.90148 3.55573 27.7306
rtibia 15.6642
rfoot -11.0132 -13.5791
rtoes 12.6686
lfemur -11.2938 -2.82637 -13.3462
ltibia 18.8275
lfoot -13.2325 3.24054
ltoes -0.184969
72
root 42.4539 17.864 5.7981 151.451 -83.0147 -140.832
lowerback -2.79251 -0.349849 3.51032
upperback -1.99944 -0.684711 4.97313
thorax -0.466698 -0.412042 3.13439
lowerneck -11.3608 -5.9945 -7.89215
upperneck 12.7406 -7.32892 3.47688
head 6.15177 -3.69676 1.72491
rclavicle 4.47266e-015 -9.46215e-014
rhumerus -29.5383 -2.97246 -77.7025
rradius 29.4907
rwrist 10.1404
rhand -13.2262 -25.3854
rfingers 7.12502
rthumb 12.8752 -54.9682
lclavicle 4.47266e-015 -9.46215e-014
lhumerus -34.8872 17.5275 79.0866
lradius 26.6194
lwrist -29.7278
lhand -12.9449 17.4519
lfingers 7.12502
lthumb 13.1464 47.0175
rfemur -9.87065 3.5548 27.8175
rtibia 15.687
rfoot -11.0548 -13.5587
rtoes 12.6734
lfemur -11.661 -2.70943 -13.2719
ltibia 19.5596
lfoot -13.3317 3.21495
ltoes -0.523143
73
root 42.4441 17.8607 5.7882 151.216 -82.9829 -140.599
lowerback -2.75394 -0.322702 3.5679
upperback -1.93503 -0.651896 5.00978
thorax -0.423172 -0.395981 3.14075
lowerneck -11.3174 -5.96286 -7.86185
upperneck 12.6135 -7.29394 3.50617
head 6.1019 -3.6752 1.73549
rclavicle -2.78299e-015 -1.27222e-014
rhumerus -29.6324 -2.28803 -77.9435
rradius 30.387
rwrist 9.73993
rhand -13.3352 -25.4438
rfingers 7.12502
rthumb 12.7701 -55.0333
lclavicle -2.78299e-015 -1.27222e-014
lhumerus -34.8822 17.4535 79.1562
lradius 26.7253
lwrist -29.658
lhand -12.9448 17.4142
lfingers 7.12502
lthumb 13.1464 46.9798
rfemur -9.83722 3.55166 27.9055
rtibia 15.7102
rfoot -11.0983 -13.5399
rtoes 12.6783
lfemur -12.0487 -2.58584 -13.197
ltibia 20.3284
lfoot -13.4193 3.1859
ltoes -0.890233
